<svg style="display: none;" xmlns="http://www.w3.org/2000/svg">
    <symbol id="menu" viewBox="0 0 24 24">
        <path fill="currentColor" d="M3,6H21V8H3V6M3,11H21V13H3V11M3,16H21V18H3V16Z" />
    </symbol>
    <symbol id="open-full" viewBox="0 0 24 24">
        <path fill="currentColor"
            d="M9.5,13.09L10.91,14.5L6.41,19H10V21H3V14H5V17.59L9.5,13.09M10.91,9.5L9.5,10.91L5,6.41V10H3V3H10V5H6.41L10.91,9.5M14.5,13.09L19,17.59V14H21V21H14V19H17.59L13.09,14.5L14.5,13.09M13.09,9.5L17.59,5H14V3H21V10H19V6.41L14.5,10.91L13.09,9.5Z" />
    </symbol>
    <symbol id="close-full" viewBox="0 0 24 24">
        <path fill="currentColor"
            d="M19.5,3.09L20.91,4.5L16.41,9H20V11H13V4H15V7.59L19.5,3.09M20.91,19.5L19.5,20.91L15,16.41V20H13V13H20V15H16.41L20.91,19.5M4.5,3.09L9,7.59V4H11V11H4V9H7.59L3.09,4.5L4.5,3.09M3.09,19.5L7.59,15H4V13H11V20H9V16.41L4.5,20.91L3.09,19.5Z" />
    </symbol>

    <symbol id="settings" viewBox="0 0 24 24">
        <path fill="currentColor" d="M12,15.5A3.5,3.5 0 0,1 8.5,12A3.5,3.5 0 0,1 12,8.5A3.5,3.5 0 0,1 15.5,12A3.5,3.5 0 0,1 12,15.5M19.43,12.97C19.47,12.65 19.5,12.33 19.5,12C19.5,11.67 19.47,11.34 19.43,11L21.54,9.37C21.73,9.22 21.78,8.95 21.66,8.73L19.66,5.27C19.54,5.05 19.27,4.96 19.05,5.05L16.56,6.05C16.04,5.66 15.5,5.32 14.87,5.07L14.5,2.42C14.46,2.18 14.25,2 14,2H10C9.75,2 9.54,2.18 9.5,2.42L9.13,5.07C8.5,5.32 7.96,5.66 7.44,6.05L4.95,5.05C4.73,4.96 4.46,5.05 4.34,5.27L2.34,8.73C2.21,8.95 2.27,9.22 2.46,9.37L4.57,11C4.53,11.34 4.5,11.67 4.5,12C4.5,12.33 4.53,12.65 4.57,12.97L2.46,14.63C2.27,14.78 2.21,15.05 2.34,15.27L4.34,18.73C4.46,18.95 4.73,19.03 4.95,18.95L7.44,17.94C7.96,18.34 8.5,18.68 9.13,18.93L9.5,21.58C9.54,21.82 9.75,22 10,22H14C14.25,22 14.46,21.82 14.5,21.58L14.87,18.93C15.5,18.67 16.04,18.34 16.56,17.94L19.05,18.95C19.27,19.03 19.54,18.95 19.66,18.73L21.66,15.27C21.78,15.05 21.73,14.78 21.54,14.63L19.43,12.97Z" />
    </symbol>
    <!-- <symbol id="keyboard-settings" viewBox="0 0 496 496">
        <path d="M88 200h27.863a136.094 136.094 0 009.848 27.496l14.394-6.992a119.853 119.853 0 01-9.921-30 7.988 7.988 0 00-7.856-6.504H96v-32h26.328a7.996 7.996 0 007.856-6.504c3.09-16.25 9.328-31.36 18.558-44.922a7.994 7.994 0 00-.957-10.16L129.2 71.832l22.633-22.633 18.582 18.586a8.012 8.012 0 0010.16.957c13.563-9.23 28.672-15.469 44.922-18.558A7.996 7.996 0 00232 42.328V16h32v26.328a7.996 7.996 0 006.504 7.856c16.25 3.09 31.36 9.328 44.922 18.558a8.003 8.003 0 0010.16-.957L344.168 49.2l22.633 22.633-18.586 18.582a8.003 8.003 0 00-.957 10.16c9.23 13.563 15.469 28.672 18.558 44.922a7.996 7.996 0 007.856 6.504H400v32h-26.328a7.988 7.988 0 00-7.856 6.504 119.958 119.958 0 01-9.921 30l14.394 6.992A136.094 136.094 0 00380.137 200H408c4.414 0 8-3.586 8-8v-48c0-4.414-3.586-8-8-8h-27.863c-3.313-13.793-8.68-26.809-16.04-38.84l19.673-19.672a7.991 7.991 0 002.343-5.656c0-2.121-.84-4.16-2.343-5.656L349.824 32.23c-3-3-8.312-3-11.312 0L318.84 51.902c-12.031-7.351-25.047-12.726-38.84-16.039V8c0-4.414-3.586-8-8-8h-48c-4.414 0-8 3.586-8 8v27.863c-13.793 3.313-26.809 8.68-38.84 16.04L157.488 32.23a7.991 7.991 0 00-5.656-2.343c-2.121 0-4.16.84-5.656 2.343L112.23 66.176a7.991 7.991 0 00-2.343 5.656c0 2.121.84 4.16 2.343 5.656l19.672 19.672c-7.359 12.031-12.734 25.047-16.039 38.84H88c-4.414 0-8 3.586-8 8v48c0 4.414 3.586 8 8 8zm0 0"/><path d="M310.84 229.61C327.063 213.054 336 191.175 336 168c0-48.52-39.48-88-88-88s-88 39.48-88 88c0 23.832 9.375 46.152 26.39 62.84l11.204-11.426C183.664 205.762 176 187.504 176 168c0-39.695 32.305-72 72-72s72 32.305 72 72c0 18.969-7.313 36.863-20.586 50.398zm0 0M488 240H8c-4.414 0-8 3.586-8 8v240c0 4.414 3.586 8 8 8h480c4.414 0 8-3.586 8-8V248c0-4.414-3.586-8-8-8zM368 400h-32v-16h32zm-48 0h-32v-16h32zm-48 0h-32v-16h32zm-48 0h-32v-16h32zm-48 0h-32v-16h32zm-48 0H96v-16h32zm0 16v16H96v-16zm16 0h32v16h-32zm48 0h32v16h-32zm48 0h32v16h-32zm48 0h32v16h-32zm48 0h32v16h-32zm32-48h-32v-16h32zm-48 0h-32v-16h32zm-48 0h-32v-16h32zm-48 0h-32v-16h32zm-48 0h-32v-16h32zm-48 0H96v-16h32zm-48 0H48v-16h32zm-32 16h32v16H48zm0 32h32v16H48zm0 32h320v32H48zm432 32h-96V344c0-4.414-3.586-8-8-8H40c-4.414 0-8 3.586-8 8v136H16V256h464zm0 0"/><path d="M40 320h64c4.414 0 8-3.586 8-8v-32c0-4.414-3.586-8-8-8H40c-4.414 0-8 3.586-8 8v32c0 4.414 3.586 8 8 8zm8-32h48v16H48zm0 0M136 320h64c4.414 0 8-3.586 8-8v-32c0-4.414-3.586-8-8-8h-64c-4.414 0-8 3.586-8 8v32c0 4.414 3.586 8 8 8zm8-32h48v16h-48zm0 0M232 320h64c4.414 0 8-3.586 8-8v-32c0-4.414-3.586-8-8-8h-64c-4.414 0-8 3.586-8 8v32c0 4.414 3.586 8 8 8zm8-32h48v16h-48zm0 0M328 320h48c4.414 0 8-3.586 8-8v-32c0-4.414-3.586-8-8-8h-48c-4.414 0-8 3.586-8 8v32c0 4.414 3.586 8 8 8zm8-32h32v16h-32zm0 0M416 288h16v16h-16zm0 0M448 288h16v16h-16zm0 0M408 464h48c4.414 0 8-3.586 8-8v-48c0-4.414-3.586-8-8-8h-48c-4.414 0-8 3.586-8 8v48c0 4.414 3.586 8 8 8zm8-48h32v32h-32zm0 0M408 384h48c4.414 0 8-3.586 8-8v-48c0-4.414-3.586-8-8-8h-48c-4.414 0-8 3.586-8 8v48c0 4.414 3.586 8 8 8zm8-48h32v32h-32zm0 0"/>
    </symbol> -->
    <symbol id="close" viewBox="0 0 24 24">
        <path fill="currentColor" d="M19,6.41L17.59,5L12,10.59L6.41,5L5,6.41L10.59,12L5,17.59L6.41,19L12,13.41L17.59,19L19,17.59L13.41,12L19,6.41Z" />
    </symbol>
    <symbol id="backspace" viewBox="0 0 24 24">
        <path fill="currentColor" d="M19,15.59L17.59,17L14,13.41L10.41,17L9,15.59L12.59,12L9,8.41L10.41,7L14,10.59L17.59,7L19,8.41L15.41,12L19,15.59M22,3A2,2 0 0,1 24,5V19A2,2 0 0,1 22,21H7C6.31,21 5.77,20.64 5.41,20.11L0,12L5.41,3.88C5.77,3.35 6.31,3 7,3H22M22,5H7L2.28,12L7,19H22V5Z" />
    </symbol>
    <symbol id="space" viewBox="0 0 24 24">
        <path fill="currentColor" d="M3 15H5V19H19V15H21V19C21 20.1 20.1 21 19 21H5C3.9 21 3 20.1 3 19V15Z" />
    </symbol>
    <symbol id="arrow-up" viewBox="0 0 24 24">
        <path fill="currentColor" d="M7.41,15.41L12,10.83L16.59,15.41L18,14L12,8L6,14L7.41,15.41Z" />
    </symbol>
    <symbol id="arrow-left" viewBox="0 0 24 24">
        <path fill="currentColor" d="M15.41,16.58L10.83,12L15.41,7.41L14,6L8,12L14,18L15.41,16.58Z" />
    </symbol>
    <symbol id="arrow-right" viewBox="0 0 24 24">
         <path fill="currentColor" d="M8.59,16.58L13.17,12L8.59,7.41L10,6L16,12L10,18L8.59,16.58Z" />
    </symbol>
    <symbol id="arrow-down" viewBox="0 0 24 24">
        <path fill="currentColor" d="M7.41,8.58L12,13.17L16.59,8.58L18,10L12,16L6,10L7.41,8.58Z" />
    </symbol>
    <symbol id="microphone" viewBox="0 0 24 24">
        <path fill="currentColor" d="M12,2A3,3 0 0,1 15,5V11A3,3 0 0,1 12,14A3,3 0 0,1 9,11V5A3,3 0 0,1 12,2M19,11C19,14.53 16.39,17.44 13,17.93V21H11V17.93C7.61,17.44 5,14.53 5,11H7A5,5 0 0,0 12,16A5,5 0 0,0 17,11H19Z" />
    </symbol>
    <symbol id="microphone-off" viewBox="0 0 24 24">
        <path fill="currentColor" d="M19,11C19,12.19 18.66,13.3 18.1,14.28L16.87,13.05C17.14,12.43 17.3,11.74 17.3,11H19M15,11.16L9,5.18V5A3,3 0 0,1 12,2A3,3 0 0,1 15,5V11L15,11.16M4.27,3L21,19.73L19.73,21L15.54,16.81C14.77,17.27 13.91,17.58 13,17.72V21H11V17.72C7.72,17.23 5,14.41 5,11H6.7C6.7,14 9.24,16.1 12,16.1C12.81,16.1 13.6,15.91 14.31,15.58L12.65,13.92L12,14A3,3 0 0,1 9,11V10.28L3,4.27L4.27,3Z" />
    </symbol>
    <symbol id="audio" viewBox="0 0 24 24">
        <path fill="currentColor" d="M14,3.23V5.29C16.89,6.15 19,8.83 19,12C19,15.17 16.89,17.84 14,18.7V20.77C18,19.86 21,16.28 21,12C21,7.72 18,4.14 14,3.23M16.5,12C16.5,10.23 15.5,8.71 14,7.97V16C15.5,15.29 16.5,13.76 16.5,12M3,9V15H7L12,20V4L7,9H3Z" />
    </symbol>
    <symbol id="audio-off" viewBox="0 0 24 24">
        <path fill="currentColor" d="M12,4L9.91,6.09L12,8.18M4.27,3L3,4.27L7.73,9H3V15H7L12,20V13.27L16.25,17.53C15.58,18.04 14.83,18.46 14,18.7V20.77C15.38,20.45 16.63,19.82 17.68,18.96L19.73,21L21,19.73L12,10.73M19,12C19,12.94 18.8,13.82 18.46,14.64L19.97,16.15C20.62,14.91 21,13.5 21,12C21,7.72 18,4.14 14,3.23V5.29C16.89,6.15 19,8.83 19,12M16.5,12C16.5,10.23 15.5,8.71 14,7.97V10.18L16.45,12.63C16.5,12.43 16.5,12.21 16.5,12Z" />
    </symbol>
</svg>